<svg xmlns="http://www.w3.org/2000/svg" width="21" height="23" viewBox="0 0 21 23" fill="none">
<path d="M16.4618 10.6023C17.1456 9.40837 17.3747 7.96132 17.0987 6.57944C16.8226 5.19756 16.0641 3.99405 14.9899 3.23366C13.9157 2.47326 12.6139 2.21828 11.3707 2.5248C10.1276 2.83133 9.04508 3.67424 8.36125 4.86813L8.32431 4.92285L8.29533 4.98321C7.63212 6.16534 7.4132 7.58983 7.6857 8.94988C7.7217 9.13656 7.76762 9.3207 7.82322 9.50135L4.42409 18.0938C4.32109 18.3538 4.30534 18.6462 4.37971 18.918C4.45408 19.1897 4.61362 19.4229 4.8294 19.5752L5.96842 20.3814C6.18379 20.5344 6.44134 20.5965 6.69432 20.5564C6.94731 20.5163 7.17898 20.3768 7.34728 20.1631L12.9129 13.1042C13.0837 13.0838 13.2532 13.0521 13.4206 13.0094C14.6444 12.7086 15.7129 11.8855 16.3959 10.7173L16.4328 10.6626L16.4618 10.6023ZM16.0285 6.89273C16.2045 7.76835 16.1184 8.6838 15.7834 9.49994L9.5467 5.08517C9.99789 4.49876 10.5873 4.0639 11.2487 3.82947C11.9101 3.59504 12.6173 3.57033 13.2907 3.75813C13.9641 3.94592 14.5771 4.33877 15.0608 4.89251C15.5444 5.44626 15.8796 6.13895 16.0285 6.89273ZM6.54139 19.3811L5.40238 18.5748L8.45305 10.8741C9.18226 12.0188 10.2861 12.8002 11.5276 13.0505L6.54139 19.3811ZM8.72856 8.69273C8.55266 7.81711 8.63874 6.90166 8.97372 6.08552L9.5467 5.08517L15.7834 9.49994C15.3322 10.0864 14.1698 11.5216 13.5084 11.756C12.847 11.9904 12.1398 12.0151 11.4664 11.8273C10.793 11.6395 10.18 11.2467 9.69635 10.6929C9.21269 10.1392 8.87753 9.44651 8.72856 8.69273Z" fill="#C4C4C4"/>
</svg>