<svg xmlns="http://www.w3.org/2000/svg" width="51" height="51" viewBox="0 0 51 51" fill="none">
<path d="M25.5 4.25C21.2972 4.25 17.1887 5.49629 13.6941 7.83127C10.1996 10.1663 7.47593 13.485 5.86757 17.368C4.25921 21.2509 3.83839 25.5236 4.65832 29.6457C5.47826 33.7678 7.50212 37.5542 10.474 40.526C13.4459 43.4979 17.2322 45.5218 21.3543 46.3417C25.4764 47.1616 29.7491 46.7408 33.632 45.1324C37.515 43.5241 40.8338 40.8004 43.1687 37.3059C45.5037 33.8113 46.75 29.7029 46.75 25.5C46.75 22.7094 46.2004 19.9461 45.1325 17.368C44.0645 14.7898 42.4993 12.4472 40.526 10.474C38.5528 8.50074 36.2102 6.93547 33.632 5.86756C31.0539 4.79965 28.2906 4.25 25.5 4.25ZM21.3543 32.5V17.381L33 25.5L21.3543 32.5Z" fill="white"/>
</svg>