<svg width="511" height="5" viewBox="0 0 511 5" fill="none" xmlns="http://www.w3.org/2000/svg">
<rect width="511" height="5" fill="#E5E5E5"/>
<rect x="-665" y="-1066" width="1728" height="1117" fill="white"/>
<rect x="-377.1" y="-1071.39" width="1457.1" height="1115.89" fill="url(#paint0_linear_0_1)"/>
<rect x="-246" y="-221" width="251.292" height="250.753" fill="#181818"/>
<rect x="36" y="-221" width="251.292" height="250.753" fill="#181818"/>
<path d="M62.692 11.4897V-1.40425H58.345V-3.21025H69.244V-1.40425H64.918V11.4897H62.692ZM70.8231 11.4897V-3.63025H73.0491V2.75375C73.3991 2.15175 73.8821 1.68275 74.4981 1.34675C75.1281 0.996746 75.8211 0.821746 76.5771 0.821746C77.8231 0.821746 78.8031 1.21375 79.5171 1.99775C80.2311 2.78175 80.5881 3.95075 80.5881 5.50475V11.4897H78.3831V5.73575C78.3831 3.71975 77.5781 2.71175 75.9681 2.71175C75.1281 2.71175 74.4281 3.00575 73.8681 3.59375C73.3221 4.18175 73.0491 5.02175 73.0491 6.11375V11.4897H70.8231ZM87.6618 11.7417C86.6398 11.7417 85.7298 11.5177 84.9318 11.0697C84.1478 10.6077 83.5318 9.97075 83.0838 9.15875C82.6358 8.34675 82.4118 7.40175 82.4118 6.32375C82.4118 5.23175 82.6288 4.27275 83.0628 3.44675C83.5108 2.62075 84.1268 1.97675 84.9108 1.51475C85.7088 1.05275 86.6328 0.821746 87.6828 0.821746C88.7048 0.821746 89.5938 1.05275 90.3498 1.51475C91.1058 1.96275 91.6938 2.56475 92.1138 3.32075C92.5338 4.07675 92.7438 4.90975 92.7438 5.81975C92.7438 5.95975 92.7368 6.11375 92.7228 6.28175C92.7228 6.43575 92.7158 6.61075 92.7018 6.80675H84.5958C84.6658 7.81475 84.9948 8.58475 85.5828 9.11675C86.1848 9.63475 86.8778 9.89375 87.6618 9.89375C88.2918 9.89375 88.8168 9.75375 89.2368 9.47375C89.6708 9.17975 89.9928 8.78775 90.2028 8.29775H92.4288C92.1488 9.27775 91.5888 10.0967 90.7488 10.7547C89.9228 11.4127 88.8938 11.7417 87.6618 11.7417ZM87.6618 2.64875C86.9198 2.64875 86.2618 2.87275 85.6878 3.32075C85.1138 3.75475 84.7638 4.41275 84.6378 5.29475H90.5178C90.4758 4.48275 90.1888 3.83875 89.6568 3.36275C89.1248 2.88675 88.4598 2.64875 87.6618 2.64875ZM98.6435 11.4897L104.061 -3.21025H106.497L111.873 11.4897H109.521L108.261 7.89875H102.255L100.995 11.4897H98.6435ZM102.885 6.13475H107.631L105.258 -0.564254L102.885 6.13475ZM113.419 11.4897V-3.63025H115.645V11.4897H113.419ZM122.916 11.7417C121.894 11.7417 120.984 11.5177 120.186 11.0697C119.402 10.6077 118.786 9.97075 118.338 9.15875C117.89 8.34675 117.666 7.40175 117.666 6.32375C117.666 5.23175 117.883 4.27275 118.317 3.44675C118.765 2.62075 119.381 1.97675 120.165 1.51475C120.963 1.05275 121.887 0.821746 122.937 0.821746C123.959 0.821746 124.848 1.05275 125.604 1.51475C126.36 1.96275 126.948 2.56475 127.368 3.32075C127.788 4.07675 127.998 4.90975 127.998 5.81975C127.998 5.95975 127.991 6.11375 127.977 6.28175C127.977 6.43575 127.97 6.61075 127.956 6.80675H119.85C119.92 7.81475 120.249 8.58475 120.837 9.11675C121.439 9.63475 122.132 9.89375 122.916 9.89375C123.546 9.89375 124.071 9.75375 124.491 9.47375C124.925 9.17975 125.247 8.78775 125.457 8.29775H127.683C127.403 9.27775 126.843 10.0967 126.003 10.7547C125.177 11.4127 124.148 11.7417 122.916 11.7417ZM122.916 2.64875C122.174 2.64875 121.516 2.87275 120.942 3.32075C120.368 3.75475 120.018 4.41275 119.892 5.29475H125.772C125.73 4.48275 125.443 3.83875 124.911 3.36275C124.379 2.88675 123.714 2.64875 122.916 2.64875ZM128.265 11.4897L131.961 6.28175L128.265 1.07375H130.638L133.431 5.06375L136.203 1.07375H138.597L134.901 6.28175L138.597 11.4897H136.203L133.431 7.49975L130.638 11.4897H128.265ZM143.373 11.7417C142.491 11.7417 141.763 11.5947 141.189 11.3007C140.615 11.0067 140.188 10.6217 139.908 10.1457C139.628 9.65575 139.488 9.12375 139.488 8.54975C139.488 7.54175 139.88 6.74375 140.664 6.15575C141.448 5.56775 142.568 5.27375 144.024 5.27375H146.754V5.08475C146.754 4.27275 146.53 3.66375 146.082 3.25775C145.648 2.85175 145.081 2.64875 144.381 2.64875C143.765 2.64875 143.226 2.80275 142.764 3.11075C142.316 3.40475 142.043 3.84575 141.945 4.43375H139.719C139.789 3.67775 140.041 3.03375 140.475 2.50175C140.923 1.95575 141.483 1.54275 142.155 1.26275C142.841 0.968746 143.59 0.821746 144.402 0.821746C145.858 0.821746 146.985 1.20675 147.783 1.97675C148.581 2.73275 148.98 3.76875 148.98 5.08475V11.4897H147.048L146.859 9.70475C146.565 10.2787 146.138 10.7617 145.578 11.1537C145.018 11.5457 144.283 11.7417 143.373 11.7417ZM143.814 9.93575C144.416 9.93575 144.92 9.79575 145.326 9.51575C145.746 9.22175 146.068 8.83675 146.292 8.36075C146.53 7.88475 146.677 7.35975 146.733 6.78575H144.255C143.373 6.78575 142.743 6.93975 142.365 7.24775C142.001 7.55575 141.819 7.94075 141.819 8.40275C141.819 8.87875 141.994 9.25675 142.344 9.53675C142.708 9.80275 143.198 9.93575 143.814 9.93575ZM160.961 11.7417C159.883 11.7417 158.938 11.5527 158.126 11.1747C157.314 10.7967 156.677 10.2577 156.215 9.55775C155.767 8.85775 155.536 8.02475 155.522 7.05875H157.874C157.888 7.84275 158.161 8.50775 158.693 9.05375C159.225 9.59975 159.974 9.87275 160.94 9.87275C161.794 9.87275 162.459 9.66975 162.935 9.26375C163.425 8.84375 163.67 8.31175 163.67 7.66775C163.67 7.14975 163.551 6.72975 163.313 6.40775C163.089 6.08575 162.774 5.81975 162.368 5.60975C161.976 5.39975 161.521 5.21075 161.003 5.04275C160.485 4.87475 159.939 4.69275 159.365 4.49675C158.231 4.11875 157.377 3.62875 156.803 3.02675C156.243 2.42475 155.963 1.63375 155.963 0.653745C155.949 -0.172255 156.138 -0.893255 156.53 -1.50925C156.936 -2.12525 157.496 -2.60125 158.21 -2.93725C158.938 -3.28725 159.785 -3.46225 160.751 -3.46225C161.703 -3.46225 162.536 -3.28725 163.25 -2.93725C163.978 -2.58726 164.545 -2.09726 164.951 -1.46725C165.357 -0.851254 165.567 -0.130254 165.581 0.695746H163.229C163.229 0.317746 163.131 -0.039254 162.935 -0.375254C162.739 -0.725254 162.452 -1.01225 162.074 -1.23625C161.696 -1.46025 161.234 -1.57225 160.688 -1.57225C159.988 -1.58625 159.407 -1.41125 158.945 -1.04725C158.497 -0.683254 158.273 -0.179255 158.273 0.464745C158.273 1.03875 158.441 1.47975 158.777 1.78775C159.113 2.09575 159.575 2.35475 160.163 2.56475C160.751 2.76075 161.423 2.99175 162.179 3.25775C162.907 3.49575 163.558 3.78275 164.132 4.11875C164.706 4.45475 165.161 4.89575 165.497 5.44175C165.847 5.98775 166.022 6.68075 166.022 7.52075C166.022 8.26275 165.833 8.95575 165.455 9.59975C165.077 10.2297 164.51 10.7477 163.754 11.1537C162.998 11.5457 162.067 11.7417 160.961 11.7417ZM167.952 11.4897V-3.63025H170.178V2.75375C170.528 2.15175 171.011 1.68275 171.627 1.34675C172.257 0.996746 172.95 0.821746 173.706 0.821746C174.952 0.821746 175.932 1.21375 176.646 1.99775C177.36 2.78175 177.717 3.95075 177.717 5.50475V11.4897H175.512V5.73575C175.512 3.71975 174.707 2.71175 173.097 2.71175C172.257 2.71175 171.557 3.00575 170.997 3.59375C170.451 4.18175 170.178 5.02175 170.178 6.11375V11.4897H167.952ZM184.791 11.7417C183.797 11.7417 182.901 11.5177 182.103 11.0697C181.319 10.6077 180.696 9.97075 180.234 9.15875C179.772 8.33275 179.541 7.37375 179.541 6.28175C179.541 5.18975 179.772 4.23775 180.234 3.42575C180.71 2.59975 181.347 1.96275 182.145 1.51475C182.943 1.05275 183.832 0.821746 184.812 0.821746C185.806 0.821746 186.695 1.05275 187.479 1.51475C188.277 1.96275 188.907 2.59975 189.369 3.42575C189.845 4.23775 190.083 5.18975 190.083 6.28175C190.083 7.37375 189.845 8.33275 189.369 9.15875C188.907 9.97075 188.277 10.6077 187.479 11.0697C186.681 11.5177 185.785 11.7417 184.791 11.7417ZM184.791 9.83075C185.323 9.83075 185.813 9.69775 186.261 9.43175C186.723 9.16575 187.094 8.77375 187.374 8.25575C187.654 7.72375 187.794 7.06575 187.794 6.28175C187.794 5.49775 187.654 4.84675 187.374 4.32875C187.108 3.79675 186.744 3.39775 186.282 3.13175C185.834 2.86575 185.344 2.73275 184.812 2.73275C184.28 2.73275 183.783 2.86575 183.321 3.13175C182.873 3.39775 182.509 3.79675 182.229 4.32875C181.949 4.84675 181.809 5.49775 181.809 6.28175C181.809 7.06575 181.949 7.72375 182.229 8.25575C182.509 8.77375 182.873 9.16575 183.321 9.43175C183.769 9.69775 184.259 9.83075 184.791 9.83075ZM193.76 11.4897L190.694 1.07375H192.92L194.936 8.92775L197.204 1.07375H199.682L201.95 8.92775L203.966 1.07375H206.192L203.126 11.4897H200.837L198.443 3.29975L196.049 11.4897H193.76Z" fill="white"/>
<rect x="318" y="-221" width="251.292" height="250.753" fill="#181818"/>
<path d="M344.692 11.4897V-1.40425H340.345V-3.21025H351.244V-1.40425H346.918V11.4897H344.692ZM352.823 11.4897V-3.63025H355.049V2.75375C355.399 2.15175 355.882 1.68275 356.498 1.34675C357.128 0.996746 357.821 0.821746 358.577 0.821746C359.823 0.821746 360.803 1.21375 361.517 1.99775C362.231 2.78175 362.588 3.95075 362.588 5.50475V11.4897H360.383V5.73575C360.383 3.71975 359.578 2.71175 357.968 2.71175C357.128 2.71175 356.428 3.00575 355.868 3.59375C355.322 4.18175 355.049 5.02175 355.049 6.11375V11.4897H352.823ZM369.662 11.7417C368.64 11.7417 367.73 11.5177 366.932 11.0697C366.148 10.6077 365.532 9.97075 365.084 9.15875C364.636 8.34675 364.412 7.40175 364.412 6.32375C364.412 5.23175 364.629 4.27275 365.063 3.44675C365.511 2.62075 366.127 1.97675 366.911 1.51475C367.709 1.05275 368.633 0.821746 369.683 0.821746C370.705 0.821746 371.594 1.05275 372.35 1.51475C373.106 1.96275 373.694 2.56475 374.114 3.32075C374.534 4.07675 374.744 4.90975 374.744 5.81975C374.744 5.95975 374.737 6.11375 374.723 6.28175C374.723 6.43575 374.716 6.61075 374.702 6.80675H366.596C366.666 7.81475 366.995 8.58475 367.583 9.11675C368.185 9.63475 368.878 9.89375 369.662 9.89375C370.292 9.89375 370.817 9.75375 371.237 9.47375C371.671 9.17975 371.993 8.78775 372.203 8.29775H374.429C374.149 9.27775 373.589 10.0967 372.749 10.7547C371.923 11.4127 370.894 11.7417 369.662 11.7417ZM369.662 2.64875C368.92 2.64875 368.262 2.87275 367.688 3.32075C367.114 3.75475 366.764 4.41275 366.638 5.29475H372.518C372.476 4.48275 372.189 3.83875 371.657 3.36275C371.125 2.88675 370.46 2.64875 369.662 2.64875ZM380.643 11.4897L386.061 -3.21025H388.497L393.873 11.4897H391.521L390.261 7.89875H384.255L382.995 11.4897H380.643ZM384.885 6.13475H389.631L387.258 -0.564254L384.885 6.13475ZM395.419 11.4897V-3.63025H397.645V11.4897H395.419ZM404.916 11.7417C403.894 11.7417 402.984 11.5177 402.186 11.0697C401.402 10.6077 400.786 9.97075 400.338 9.15875C399.89 8.34675 399.666 7.40175 399.666 6.32375C399.666 5.23175 399.883 4.27275 400.317 3.44675C400.765 2.62075 401.381 1.97675 402.165 1.51475C402.963 1.05275 403.887 0.821746 404.937 0.821746C405.959 0.821746 406.848 1.05275 407.604 1.51475C408.36 1.96275 408.948 2.56475 409.368 3.32075C409.788 4.07675 409.998 4.90975 409.998 5.81975C409.998 5.95975 409.991 6.11375 409.977 6.28175C409.977 6.43575 409.97 6.61075 409.956 6.80675H401.85C401.92 7.81475 402.249 8.58475 402.837 9.11675C403.439 9.63475 404.132 9.89375 404.916 9.89375C405.546 9.89375 406.071 9.75375 406.491 9.47375C406.925 9.17975 407.247 8.78775 407.457 8.29775H409.683C409.403 9.27775 408.843 10.0967 408.003 10.7547C407.177 11.4127 406.148 11.7417 404.916 11.7417ZM404.916 2.64875C404.174 2.64875 403.516 2.87275 402.942 3.32075C402.368 3.75475 402.018 4.41275 401.892 5.29475H407.772C407.73 4.48275 407.443 3.83875 406.911 3.36275C406.379 2.88675 405.714 2.64875 404.916 2.64875ZM410.265 11.4897L413.961 6.28175L410.265 1.07375H412.638L415.431 5.06375L418.203 1.07375H420.597L416.901 6.28175L420.597 11.4897H418.203L415.431 7.49975L412.638 11.4897H410.265ZM425.373 11.7417C424.491 11.7417 423.763 11.5947 423.189 11.3007C422.615 11.0067 422.188 10.6217 421.908 10.1457C421.628 9.65575 421.488 9.12375 421.488 8.54975C421.488 7.54175 421.88 6.74375 422.664 6.15575C423.448 5.56775 424.568 5.27375 426.024 5.27375H428.754V5.08475C428.754 4.27275 428.53 3.66375 428.082 3.25775C427.648 2.85175 427.081 2.64875 426.381 2.64875C425.765 2.64875 425.226 2.80275 424.764 3.11075C424.316 3.40475 424.043 3.84575 423.945 4.43375H421.719C421.789 3.67775 422.041 3.03375 422.475 2.50175C422.923 1.95575 423.483 1.54275 424.155 1.26275C424.841 0.968746 425.59 0.821746 426.402 0.821746C427.858 0.821746 428.985 1.20675 429.783 1.97675C430.581 2.73275 430.98 3.76875 430.98 5.08475V11.4897H429.048L428.859 9.70475C428.565 10.2787 428.138 10.7617 427.578 11.1537C427.018 11.5457 426.283 11.7417 425.373 11.7417ZM425.814 9.93575C426.416 9.93575 426.92 9.79575 427.326 9.51575C427.746 9.22175 428.068 8.83675 428.292 8.36075C428.53 7.88475 428.677 7.35975 428.733 6.78575H426.255C425.373 6.78575 424.743 6.93975 424.365 7.24775C424.001 7.55575 423.819 7.94075 423.819 8.40275C423.819 8.87875 423.994 9.25675 424.344 9.53675C424.708 9.80275 425.198 9.93575 425.814 9.93575ZM442.961 11.7417C441.883 11.7417 440.938 11.5527 440.126 11.1747C439.314 10.7967 438.677 10.2577 438.215 9.55775C437.767 8.85775 437.536 8.02475 437.522 7.05875H439.874C439.888 7.84275 440.161 8.50775 440.693 9.05375C441.225 9.59975 441.974 9.87275 442.94 9.87275C443.794 9.87275 444.459 9.66975 444.935 9.26375C445.425 8.84375 445.67 8.31175 445.67 7.66775C445.67 7.14975 445.551 6.72975 445.313 6.40775C445.089 6.08575 444.774 5.81975 444.368 5.60975C443.976 5.39975 443.521 5.21075 443.003 5.04275C442.485 4.87475 441.939 4.69275 441.365 4.49675C440.231 4.11875 439.377 3.62875 438.803 3.02675C438.243 2.42475 437.963 1.63375 437.963 0.653745C437.949 -0.172255 438.138 -0.893255 438.53 -1.50925C438.936 -2.12525 439.496 -2.60125 440.21 -2.93725C440.938 -3.28725 441.785 -3.46225 442.751 -3.46225C443.703 -3.46225 444.536 -3.28725 445.25 -2.93725C445.978 -2.58726 446.545 -2.09726 446.951 -1.46725C447.357 -0.851254 447.567 -0.130254 447.581 0.695746H445.229C445.229 0.317746 445.131 -0.039254 444.935 -0.375254C444.739 -0.725254 444.452 -1.01225 444.074 -1.23625C443.696 -1.46025 443.234 -1.57225 442.688 -1.57225C441.988 -1.58625 441.407 -1.41125 440.945 -1.04725C440.497 -0.683254 440.273 -0.179255 440.273 0.464745C440.273 1.03875 440.441 1.47975 440.777 1.78775C441.113 2.09575 441.575 2.35475 442.163 2.56475C442.751 2.76075 443.423 2.99175 444.179 3.25775C444.907 3.49575 445.558 3.78275 446.132 4.11875C446.706 4.45475 447.161 4.89575 447.497 5.44175C447.847 5.98775 448.022 6.68075 448.022 7.52075C448.022 8.26275 447.833 8.95575 447.455 9.59975C447.077 10.2297 446.51 10.7477 445.754 11.1537C444.998 11.5457 444.067 11.7417 442.961 11.7417ZM449.952 11.4897V-3.63025H452.178V2.75375C452.528 2.15175 453.011 1.68275 453.627 1.34675C454.257 0.996746 454.95 0.821746 455.706 0.821746C456.952 0.821746 457.932 1.21375 458.646 1.99775C459.36 2.78175 459.717 3.95075 459.717 5.50475V11.4897H457.512V5.73575C457.512 3.71975 456.707 2.71175 455.097 2.71175C454.257 2.71175 453.557 3.00575 452.997 3.59375C452.451 4.18175 452.178 5.02175 452.178 6.11375V11.4897H449.952ZM466.791 11.7417C465.797 11.7417 464.901 11.5177 464.103 11.0697C463.319 10.6077 462.696 9.97075 462.234 9.15875C461.772 8.33275 461.541 7.37375 461.541 6.28175C461.541 5.18975 461.772 4.23775 462.234 3.42575C462.71 2.59975 463.347 1.96275 464.145 1.51475C464.943 1.05275 465.832 0.821746 466.812 0.821746C467.806 0.821746 468.695 1.05275 469.479 1.51475C470.277 1.96275 470.907 2.59975 471.369 3.42575C471.845 4.23775 472.083 5.18975 472.083 6.28175C472.083 7.37375 471.845 8.33275 471.369 9.15875C470.907 9.97075 470.277 10.6077 469.479 11.0697C468.681 11.5177 467.785 11.7417 466.791 11.7417ZM466.791 9.83075C467.323 9.83075 467.813 9.69775 468.261 9.43175C468.723 9.16575 469.094 8.77375 469.374 8.25575C469.654 7.72375 469.794 7.06575 469.794 6.28175C469.794 5.49775 469.654 4.84675 469.374 4.32875C469.108 3.79675 468.744 3.39775 468.282 3.13175C467.834 2.86575 467.344 2.73275 466.812 2.73275C466.28 2.73275 465.783 2.86575 465.321 3.13175C464.873 3.39775 464.509 3.79675 464.229 4.32875C463.949 4.84675 463.809 5.49775 463.809 6.28175C463.809 7.06575 463.949 7.72375 464.229 8.25575C464.509 8.77375 464.873 9.16575 465.321 9.43175C465.769 9.69775 466.259 9.83075 466.791 9.83075ZM475.76 11.4897L472.694 1.07375H474.92L476.936 8.92775L479.204 1.07375H481.682L483.95 8.92775L485.966 1.07375H488.192L485.126 11.4897H482.837L480.443 3.29975L478.049 11.4897H475.76Z" fill="white"/>
<rect x="-665" y="-83" width="1727.1" height="112" fill="#181818"/>
<rect width="511" height="5" rx="2.5" fill="#535353"/>
<rect x="-121" width="511" height="5" rx="2.5" fill="#C4C4C4"/>
<defs>
<linearGradient id="paint0_linear_0_1" x1="351.45" y1="-1071.39" x2="351.45" y2="44.5" gradientUnits="userSpaceOnUse">
<stop stop-color="#222222"/>
<stop offset="0.116448" stop-color="#1F1F1F"/>
<stop offset="0.256586" stop-color="#171717"/>
<stop offset="0.329411" stop-color="#161616"/>
<stop offset="0.359758" stop-color="#151515"/>
<stop offset="0.448896" stop-color="#131313"/>
<stop offset="0.552161" stop-color="#121212"/>
<stop offset="0.753374" stop-color="#121212"/>
<stop offset="0.854544" stop-color="#121212"/>
<stop offset="1" stop-color="#121212" stop-opacity="0"/>
</linearGradient>
</defs>
</svg>