<svg xmlns="http://www.w3.org/2000/svg" width="19" height="19" viewBox="0 0 19 19" fill="none">
<path d="M12.6922 2.24988C12.6922 1.17088 11.5462 0.599884 10.8212 1.31588L6.77958 5.30888C6.65622 5.43106 6.49683 5.49866 6.33161 5.49888H3.02224C2.48545 5.49888 1.97065 5.73594 1.59109 6.15789C1.21153 6.57985 0.998291 7.15215 0.998291 7.74888V12.2459C0.998291 12.8426 1.21153 13.4149 1.59109 13.8369C1.97065 14.2588 2.48545 14.4959 3.02224 14.4959H6.33251C6.49772 14.4961 6.65712 14.5637 6.78048 14.6859L10.8203 18.6799C11.5453 19.3959 12.6922 18.8239 12.6922 17.7459V2.24988ZM7.67731 6.42988L11.3429 2.80688V17.1889L7.67731 13.5649C7.30687 13.1985 6.82834 12.996 6.33251 12.9959H3.02224C2.84331 12.9959 2.67171 12.9169 2.54519 12.7762C2.41867 12.6356 2.34759 12.4448 2.34759 12.2459V7.74988C2.34759 7.55097 2.41867 7.36021 2.54519 7.21955C2.67171 7.0789 2.84331 6.99988 3.02224 6.99988H6.33251C6.82834 6.99974 7.30687 6.79727 7.67731 6.43088V6.42988Z" fill="#B3B3B3"/>
<path d="M16.2832 3.89678C16.3545 3.83821 16.4354 3.79581 16.5214 3.772C16.6073 3.74819 16.6967 3.74344 16.7843 3.75802C16.8719 3.7726 16.9561 3.80622 17.032 3.85697C17.108 3.90771 17.1742 3.97459 17.2269 4.05378C18.3739 5.77367 18.9919 7.85873 18.989 9.99978C18.9915 12.1409 18.3733 14.226 17.226 15.9458C17.1173 16.0985 16.9594 16.1983 16.7857 16.2239C16.6121 16.2496 16.4363 16.1991 16.2955 16.0833C16.1546 15.9674 16.0599 15.7952 16.0313 15.6031C16.0026 15.4109 16.0424 15.2139 16.142 15.0538C17.1173 13.5921 17.6425 11.8197 17.6397 9.99978C17.6425 8.17987 17.1173 6.40747 16.142 4.94578C16.0893 4.86659 16.0512 4.77664 16.0298 4.68107C16.0084 4.5855 16.0041 4.48617 16.0172 4.38876C16.0303 4.29135 16.0606 4.19777 16.1062 4.11335C16.1519 4.02894 16.212 3.95535 16.2832 3.89678Z" fill="#B3B3B3"/>
<path d="M14.6198 6.36978C14.6977 6.32281 14.7832 6.29336 14.8713 6.28312C14.9595 6.27287 15.0486 6.28204 15.1335 6.31008C15.2185 6.33813 15.2976 6.3845 15.3665 6.44657C15.4353 6.50863 15.4924 6.58515 15.5347 6.67178C16.0168 7.66178 16.2903 8.79678 16.2903 9.99978C16.2918 11.1618 16.032 12.3058 15.5347 13.3278C15.4495 13.5028 15.3053 13.6331 15.1337 13.6899C14.9621 13.7467 14.7773 13.7255 14.6198 13.6308C14.4624 13.5361 14.3452 13.3758 14.2941 13.185C14.243 12.9943 14.2621 12.7888 14.3473 12.6138C14.7251 11.8368 14.941 10.9478 14.941 9.99978C14.941 9.05178 14.7251 8.16278 14.3473 7.38578C14.3051 7.29911 14.2786 7.20405 14.2695 7.10603C14.2603 7.008 14.2686 6.90893 14.294 6.81448C14.3193 6.72003 14.3611 6.63205 14.417 6.55557C14.4729 6.4791 14.5418 6.41562 14.6198 6.36878V6.36978Z" fill="#B3B3B3"/>
</svg>