<svg xmlns="http://www.w3.org/2000/svg" width="14" height="14" viewBox="0 0 14 14" fill="none">
<path d="M8.92539 1.1876C8.92539 0.378346 8.06544 -0.0499041 7.52139 0.487096L4.48862 3.48185C4.39605 3.57348 4.27644 3.62418 4.15247 3.62435H1.66914C1.26634 3.62435 0.880043 3.80214 0.595222 4.1186C0.310401 4.43507 0.150391 4.86429 0.150391 5.31185V8.6846C0.150391 9.13215 0.310401 9.56137 0.595222 9.87784C0.880043 10.1943 1.26634 10.3721 1.66914 10.3721H4.15314C4.27711 10.3723 4.39672 10.423 4.48929 10.5146L7.52071 13.5101C8.06476 14.0471 8.92539 13.6181 8.92539 12.8096V1.1876ZM5.16227 4.3226L7.91289 1.60535V12.3918L5.16227 9.67385C4.88429 9.39906 4.52521 9.2472 4.15314 9.2471H1.66914C1.53487 9.2471 1.40611 9.18783 1.31117 9.08234C1.21623 8.97685 1.16289 8.83378 1.16289 8.6846V5.3126C1.16289 5.16341 1.21623 5.02034 1.31117 4.91485C1.40611 4.80936 1.53487 4.7501 1.66914 4.7501H4.15314C4.52521 4.74999 4.88429 4.59814 5.16227 4.32335V4.3226Z" fill="black"/>
<path d="M11.62 2.42277C11.6735 2.37884 11.7342 2.34704 11.7987 2.32918C11.8632 2.31132 11.9302 2.30776 11.996 2.3187C12.0617 2.32963 12.1249 2.35485 12.1819 2.39291C12.2389 2.43097 12.2886 2.48113 12.3281 2.54052C13.1888 3.83044 13.6525 5.39423 13.6504 7.00002C13.6523 8.60588 13.1884 10.1697 12.3274 11.4595C12.2459 11.5741 12.1274 11.6489 11.9971 11.6681C11.8668 11.6874 11.7348 11.6495 11.6292 11.5626C11.5235 11.4757 11.4524 11.3466 11.4309 11.2025C11.4094 11.0584 11.4392 10.9106 11.514 10.7905C12.2459 9.69425 12.64 8.36495 12.6379 7.00002C12.64 5.63508 12.2459 4.30579 11.514 3.20952C11.4745 3.15013 11.4459 3.08267 11.4298 3.01099C11.4137 2.93931 11.4105 2.86481 11.4204 2.79175C11.4302 2.7187 11.4529 2.64851 11.4872 2.5852C11.5214 2.52189 11.5666 2.46669 11.62 2.42277Z" fill="black"/>
<path d="M10.3718 4.27751C10.4303 4.24229 10.4944 4.2202 10.5605 4.21252C10.6267 4.20484 10.6935 4.21171 10.7573 4.23275C10.821 4.25378 10.8804 4.28856 10.9321 4.33511C10.9837 4.38165 11.0266 4.43905 11.0583 4.50401C11.4201 5.24651 11.6253 6.09776 11.6253 7.00001C11.6264 7.87151 11.4315 8.7295 11.0583 9.49602C10.9944 9.6273 10.8861 9.72499 10.7574 9.76761C10.6287 9.81023 10.49 9.79428 10.3718 9.72326C10.2537 9.65225 10.1657 9.532 10.1274 9.38896C10.089 9.24591 10.1034 9.0918 10.1673 8.96052C10.4508 8.37777 10.6128 7.71101 10.6128 7.00001C10.6128 6.28901 10.4508 5.62226 10.1673 5.03951C10.1356 4.97452 10.1158 4.90322 10.1089 4.8297C10.102 4.75618 10.1083 4.68188 10.1273 4.61104C10.1463 4.5402 10.1776 4.47422 10.2196 4.41686C10.2616 4.35951 10.3133 4.3119 10.3718 4.27676V4.27751Z" fill="black"/>
</svg>